<?xml version="1.0" standalone="no"?>
<!DOCTYPE svg PUBLIC "-//W3C//DTD SVG 20010904//EN"
 "http://www.w3.org/TR/2001/REC-SVG-20010904/DTD/svg10.dtd">
<svg version="1.0" xmlns="http://www.w3.org/2000/svg"
 width="2288.000000pt" height="3125.000000pt" viewBox="0 0 2288.000000 3125.000000"
 preserveAspectRatio="xMidYMid meet">

<g transform="translate(0.000000,3125.000000) scale(0.100000,-0.100000)"
fill="#000000" stroke="none">
<path d="M5652 25597 l-5652 -5652 0 -5681 0 -5681 1457 -1447 c801 -796 1460
-1445 1465 -1444 4 2 644 651 1422 1443 l1415 1440 0 4245 1 4245 2748 2747
2747 2747 2107 -2032 2107 -2032 -3455 -3455 -3454 -3455 0 -1513 0 -1514
1400 -1406 1400 -1407 0 -1460 0 -1460 1413 -1413 1412 -1412 55 0 55 0 1413
1413 1412 1412 0 2880 0 2880 -700 700 -700 700 3500 3500 3500 3500 0 1480 0
1480 -5653 5653 -5652 5652 -55 0 -55 0 -5653 -5653z m11219 -213 l5518 -5439
-4280 -4280 -4279 -4280 1400 -1400 1400 -1400 -1208 -1208 -1207 -1207 -2605
2605 -2605 2605 4278 4278 c2352 2352 4277 4280 4277 4284 0 3 -1329 1301
-2952 2884 -1624 1583 -3024 2948 -3111 3033 l-158 155 -4279 -4279 -4280
-4280 -1165 1165 c-641 641 -1164 1168 -1163 1172 8 20 10882 11038 10891
11035 6 -2 2494 -2451 5528 -5443z m-1148 -23806 c-681 -681 -1241 -1238
-1245 -1238 -5 0 -8 557 -8 1239 l0 1238 1243 1248 1242 1248 3 -1249 2 -1249
-1237 -1237z"/>
</g>
</svg>
